<?xml version="1.0" encoding="utf-8"?>
<!-- Generator: Adobe Illustrator 25.0.0, SVG Export Plug-In . SVG Version: 6.00 Build 0)  -->
<svg version="1.1" id="Layer_1" xmlns="http://www.w3.org/2000/svg" xmlns:xlink="http://www.w3.org/1999/xlink" x="0px" y="0px"
	 viewBox="0 0 518 562" style="enable-background:new 0 0 518 562;" xml:space="preserve">
<style type="text/css">
	.st0{fill:#FFFFFF;}
	.st1{fill:#010202;}
	.st2{fill:#FF4A00;}
	.st3{fill:#EA4335;}
	.st4{fill:#FBBC05;}
	.st5{fill:#4285F4;}
	.st6{fill:#34A853;}
	.st7{fill-rule:evenodd;clip-rule:evenodd;fill:#006E53;}
	.st8{fill:#D6E806;}
	.st9{fill:#E20010;}
	.st10{fill:#A100FF;}
	.st11{fill:#24477F;}
	.st12{fill:#F5A623;}
</style>
<g>
	<circle class="st0" cx="115" cy="88.5" r="68"/>
</g>
<g>
	<circle class="st0" cx="88" cy="270.5" r="68"/>
</g>
<g>
	<circle class="st0" cx="251" cy="185.5" r="68"/>
</g>
<g>
	<circle class="st0" cx="387" cy="287.5" r="68"/>
</g>
<g>
	<circle class="st0" cx="410" cy="93.5" r="68"/>
</g>
<g>
	<circle class="st0" cx="234" cy="354.5" r="68"/>
</g>
<g>
	<circle class="st0" cx="387" cy="453.5" r="68"/>
</g>
<g>
	<circle class="st0" cx="119" cy="452.5" r="68"/>
</g>
<g>
	<path class="st1" d="M74.7,95.3c0.4,1,0.9,1.9,1.6,2.6c0.7,0.7,1.5,1.3,2.4,1.7c0.9,0.4,1.9,0.6,3,0.6c1.1,0,2.1-0.2,3-0.6
		c0.9-0.4,1.7-1,2.4-1.7c0.7-0.7,1.2-1.6,1.6-2.6c0.4-1,0.6-2.1,0.6-3.4V72.7h4.7v31.1h-4.6v-2.9c-1,1.1-2.3,1.9-3.7,2.5
		c-1.4,0.6-2.9,0.9-4.6,0.9c-1.7,0-3.2-0.3-4.6-0.9c-1.4-0.6-2.7-1.4-3.7-2.5s-1.9-2.3-2.5-3.8c-0.6-1.5-0.9-3.2-0.9-5V72.7h4.7
		v19.2C74.1,93.1,74.3,94.2,74.7,95.3z"/>
	<path class="st1" d="M102.1,72.7V84c1-1,2.2-1.9,3.6-2.5c1.4-0.6,2.8-0.9,4.4-0.9c1.7,0,3.2,0.3,4.7,0.9c1.5,0.6,2.7,1.5,3.8,2.5
		s1.9,2.3,2.5,3.8c0.6,1.5,0.9,3,0.9,4.6c0,1.6-0.3,3.2-0.9,4.6c-0.6,1.4-1.5,2.7-2.5,3.8c-1.1,1.1-2.3,1.9-3.8,2.5
		c-1.5,0.6-3,0.9-4.7,0.9c-1.6,0-3.1-0.3-4.5-0.9c-1.4-0.6-2.6-1.4-3.6-2.5v2.8h-4.4V72.7H102.1z M102.6,95.6c0.4,0.9,1,1.8,1.7,2.5
		c0.7,0.7,1.5,1.3,2.5,1.7c0.9,0.4,2,0.6,3.1,0.6c1.1,0,2.1-0.2,3-0.6c0.9-0.4,1.8-1,2.5-1.7c0.7-0.7,1.3-1.5,1.7-2.5
		c0.4-0.9,0.6-2,0.6-3.1s-0.2-2.1-0.6-3.1s-1-1.8-1.7-2.5c-0.7-0.7-1.5-1.3-2.5-1.7c-0.9-0.4-2-0.6-3-0.6s-2.1,0.2-3,0.6
		s-1.8,1-2.5,1.7c-0.7,0.7-1.3,1.5-1.7,2.5c-0.4,1-0.6,2-0.6,3.1C102,93.6,102.2,94.6,102.6,95.6z"/>
	<path class="st1" d="M124.6,87.9c0.6-1.4,1.4-2.7,2.4-3.8c1-1.1,2.3-1.9,3.7-2.6c1.4-0.6,3-0.9,4.6-0.9c1.6,0,3.1,0.3,4.5,0.9
		c1.4,0.6,2.6,1.4,3.6,2.5c1,1.1,1.8,2.3,2.4,3.7c0.6,1.4,0.8,3,0.8,4.7v1.5h-18.4c0.1,0.9,0.4,1.8,0.9,2.6c0.4,0.8,1,1.5,1.7,2
		c0.7,0.6,1.4,1,2.3,1.4c0.8,0.3,1.7,0.5,2.7,0.5c2.7,0,4.9-1.1,6.5-3.3l3.2,2.4c-1.1,1.5-2.5,2.7-4.2,3.6c-1.7,0.9-3.5,1.3-5.6,1.3
		c-1.7,0-3.3-0.3-4.7-0.9s-2.7-1.4-3.8-2.5c-1.1-1.1-1.9-2.3-2.6-3.8c-0.6-1.4-0.9-3-0.9-4.7C123.7,90.9,124,89.3,124.6,87.9z
		 M130.8,86.2c-1.3,1.1-2.1,2.4-2.5,4.2h13.8c-0.4-1.7-1.2-3.1-2.5-4.2c-1.3-1.1-2.7-1.6-4.4-1.6C133.5,84.6,132.1,85.1,130.8,86.2z
		"/>
	<path class="st1" d="M155,86.7c-0.9,1-1.4,2.4-1.4,4.2v12.9h-4.5V81.1h4.4v2.8c0.6-0.9,1.3-1.6,2.2-2.2c0.9-0.5,2-0.8,3.2-0.8h1.6
		v4.2h-1.9C157.2,85.1,156,85.6,155,86.7z"/>
</g>
<path class="st2" d="M260.5,182.6h-2.4c0-0.2-0.1-0.4-0.1-0.7c0-0.5,0-1,0-1.5c0-0.3,0.1-0.5,0.1-0.7h5.9v18.7
	c-0.3,0.1-0.6,0.1-0.9,0.1c-0.3,0-0.6,0-0.9,0c-0.3,0-0.6,0-0.9,0c-0.3,0-0.6-0.1-0.9-0.1L260.5,182.6L260.5,182.6L260.5,182.6z
	 M281,187.3c0-0.7-0.1-1.3-0.3-1.9c-0.2-0.6-0.4-1.2-0.8-1.6c-0.4-0.5-0.8-0.8-1.3-1.1c-0.5-0.3-1.2-0.4-1.9-0.4
	c-1.5,0-2.6,0.4-3.4,1.3c-0.8,0.9-1.3,2.1-1.4,3.7H281L281,187.3z M271.8,190c0,2,0.6,3.5,1.6,4.5c1,0.9,2.5,1.4,4.5,1.4
	c1.7,0,3.4-0.3,4.9-0.9c0.2,0.4,0.4,0.8,0.5,1.3c0.1,0.5,0.2,1,0.2,1.5c-0.8,0.3-1.7,0.6-2.6,0.8c-1,0.2-2,0.3-3.2,0.3
	c-1.7,0-3.2-0.2-4.4-0.7c-1.2-0.5-2.2-1.1-3-2c-0.8-0.9-1.4-1.9-1.7-3.1c-0.4-1.2-0.5-2.5-0.5-3.9c0-1.4,0.2-2.7,0.5-3.9
	c0.4-1.2,0.9-2.2,1.6-3.1c0.7-0.9,1.6-1.6,2.7-2.1c1.1-0.5,2.4-0.8,3.9-0.8c1.3,0,2.4,0.2,3.4,0.7c1,0.4,1.8,1,2.4,1.8
	c0.7,0.8,1.2,1.7,1.5,2.7c0.3,1.1,0.5,2.2,0.5,3.4c0,0.3,0,0.7,0,1.1c0,0.3,0,0.6-0.1,1L271.8,190L271.8,190L271.8,190z
	 M288.5,179.8c0.3,0,0.5-0.1,0.8-0.1c0.2,0,0.5,0,0.8,0s0.5,0,0.8,0c0.3,0,0.5,0.1,0.7,0.1c0.1,0.4,0.1,0.8,0.2,1.4
	c0.1,0.6,0.1,1.1,0.1,1.5c0.5-0.8,1.2-1.5,2-2.1c0.8-0.6,1.9-0.9,3.2-0.9c0.2,0,0.4,0,0.6,0c0.2,0,0.4,0,0.5,0.1
	c0,0.2,0.1,0.4,0.1,0.7c0,0.2,0,0.5,0,0.8c0,0.3,0,0.6-0.1,0.9c0,0.3-0.1,0.6-0.1,0.9c-0.2,0-0.4-0.1-0.6-0.1h-0.5
	c-0.7,0-1.3,0.1-1.9,0.3c-0.6,0.2-1.1,0.5-1.6,1c-0.5,0.5-0.8,1.1-1.1,1.9c-0.3,0.8-0.4,1.8-0.4,3.1v9.3c-0.3,0.1-0.6,0.1-0.9,0.1
	c-0.3,0-0.6,0-0.9,0c-0.3,0-0.6,0-0.9,0c-0.3,0-0.6-0.1-0.9-0.1L288.5,179.8L288.5,179.8z M263,169.9c0,0.4-0.1,0.9-0.2,1.3
	c-0.4,0.2-0.8,0.2-1.3,0.2h0c-0.4,0-0.9-0.1-1.3-0.2c-0.2-0.4-0.2-0.8-0.2-1.3v0c0-0.4,0.1-0.9,0.2-1.3c0.4-0.2,0.8-0.2,1.3-0.2h0
	c0.4,0,0.9,0.1,1.3,0.2C262.9,169,263,169.4,263,169.9L263,169.9L263,169.9L263,169.9z M267.4,168.8h-3.5l2.5-2.5
	c-0.4-0.6-0.9-1-1.4-1.4l-2.5,2.5v-3.5c-0.3-0.1-0.7-0.1-1-0.1h0c-0.3,0-0.7,0-1,0.1v3.5l-2.5-2.5c-0.3,0.2-0.5,0.4-0.8,0.7l0,0
	c-0.2,0.2-0.5,0.5-0.7,0.8l2.5,2.5h-3.5c0,0-0.1,0.7-0.1,1v0c0,0.3,0,0.7,0.1,1h3.5l-2.5,2.5c0.4,0.5,0.9,1,1.4,1.4l2.5-2.5v3.5
	c0.3,0.1,0.7,0.1,1,0.1h0c0.3,0,0.7,0,1-0.1v-3.5l2.5,2.5c0.3-0.2,0.5-0.4,0.8-0.7h0c0.2-0.2,0.5-0.5,0.7-0.8l-2.5-2.5h3.5
	c0.1-0.3,0.1-0.7,0.1-1v0C267.5,169.5,267.5,169.2,267.4,168.8L267.4,168.8L267.4,168.8z M203.6,198l9.8-15.3h-8.7
	c-0.1-0.4-0.1-0.9-0.1-1.5c0-0.5,0-1,0.1-1.4h14l0.2,0.5l-9.9,15.3h9.3c0.1,0.5,0.1,1,0.1,1.5c0,0.5,0,0.9-0.1,1.4h-14.5L203.6,198
	L203.6,198z M231.9,189.7c-0.4,0-0.8-0.1-1.4-0.1c-0.6,0-1-0.1-1.4-0.1c-1.5,0-2.6,0.3-3.4,0.8c-0.8,0.6-1.2,1.4-1.2,2.5
	c0,0.7,0.1,1.3,0.4,1.7c0.3,0.4,0.6,0.7,1,0.9c0.4,0.2,0.8,0.4,1.3,0.4c0.5,0,0.9,0.1,1.4,0.1c0.6,0,1.1,0,1.7-0.1
	c0.6-0.1,1.1-0.2,1.6-0.3L231.9,189.7L231.9,189.7z M231.9,186.2c0-1.4-0.4-2.4-1.1-3c-0.7-0.6-1.8-0.8-3.2-0.8
	c-0.8,0-1.6,0.1-2.4,0.2c-0.7,0.1-1.5,0.3-2.2,0.5c-0.5-0.8-0.7-1.8-0.7-2.9c0.8-0.3,1.7-0.5,2.7-0.6c1-0.1,2-0.2,2.9-0.2
	c2.4,0,4.3,0.6,5.5,1.7c1.3,1.1,1.9,2.9,1.9,5.3V198c-0.8,0.2-1.9,0.4-3.1,0.6c-1.2,0.2-2.5,0.3-3.7,0.3c-1.2,0-2.3-0.1-3.2-0.3
	c-1-0.2-1.8-0.6-2.4-1.1c-0.7-0.5-1.2-1.1-1.5-1.9c-0.4-0.8-0.5-1.7-0.5-2.7c0-1,0.2-2,0.6-2.7c0.4-0.8,1-1.5,1.7-2
	c0.7-0.5,1.6-0.9,2.5-1.2c0.9-0.3,1.9-0.4,3-0.4c0.8,0,1.4,0,1.9,0.1c0.5,0,0.9,0.1,1.3,0.1L231.9,186.2L231.9,186.2z M243,195.4
	c0.5,0.2,0.9,0.3,1.4,0.4c0.5,0.1,1.1,0.1,1.9,0.1c0.9,0,1.7-0.1,2.4-0.4c0.7-0.3,1.4-0.7,1.9-1.3c0.5-0.6,0.9-1.3,1.2-2.2
	c0.3-0.9,0.5-1.9,0.5-3.1c0-1.9-0.4-3.5-1.1-4.6c-0.7-1.1-1.9-1.7-3.5-1.7c-0.6,0-1.2,0.1-1.7,0.3c-0.6,0.2-1.1,0.5-1.5,1
	c-0.4,0.4-0.8,1-1.1,1.7c-0.3,0.7-0.4,1.5-0.4,2.4L243,195.4L243,195.4L243,195.4z M239.4,179.8c0.2,0,0.5-0.1,0.7-0.1
	c0.3,0,0.5,0,0.8,0c0.2,0,0.5,0,0.8,0c0.3,0,0.5,0.1,0.8,0.1c0,0,0.1,0.2,0.1,0.5c0,0.3,0.1,0.5,0.1,0.8c0,0.3,0.1,0.6,0.1,0.8
	c0,0.3,0.1,0.4,0.1,0.5c0.2-0.4,0.5-0.8,0.9-1.1c0.3-0.4,0.7-0.7,1.2-1c0.5-0.3,1-0.5,1.6-0.7c0.6-0.2,1.3-0.3,2-0.3
	c1.1,0,2.1,0.2,3,0.5c0.9,0.4,1.7,0.9,2.4,1.7c0.7,0.8,1.2,1.7,1.6,2.9c0.4,1.2,0.6,2.6,0.6,4.2c0,3.2-0.9,5.7-2.6,7.5
	c-1.7,1.8-4.2,2.7-7.4,2.7c-0.5,0-1.1,0-1.6-0.1c-0.6-0.1-1-0.2-1.5-0.3v8.5c-0.3,0-0.6,0.1-0.9,0.1c-0.3,0-0.6,0-0.9,0
	c-0.3,0-0.6,0-0.9,0c-0.3,0-0.6-0.1-0.9-0.1L239.4,179.8L239.4,179.8z"/>
<g>
	<path class="st3" d="M81.1,271.3c0,4.5-3.5,7.9-7.9,7.9s-7.9-3.3-7.9-7.9c0-4.6,3.5-7.9,7.9-7.9S81.1,266.8,81.1,271.3z
		 M77.6,271.3c0-2.8-2.1-4.8-4.4-4.8s-4.4,1.9-4.4,4.8c0,2.8,2.1,4.8,4.4,4.8S77.6,274.1,77.6,271.3z"/>
	<path class="st4" d="M98.1,271.3c0,4.5-3.5,7.9-7.9,7.9s-7.9-3.3-7.9-7.9c0-4.6,3.5-7.9,7.9-7.9S98.1,266.8,98.1,271.3z
		 M94.7,271.3c0-2.8-2.1-4.8-4.4-4.8s-4.4,1.9-4.4,4.8c0,2.8,2.1,4.8,4.4,4.8S94.7,274.1,94.7,271.3z"/>
	<path class="st5" d="M114.5,263.9v14.1c0,5.8-3.4,8.2-7.5,8.2c-3.8,0-6.1-2.6-7-4.6l3-1.3c0.5,1.3,1.9,2.8,4,2.8
		c2.6,0,4.2-1.6,4.2-4.6v-1.1h-0.1c-0.8,1-2.3,1.8-4.1,1.8c-3.9,0-7.5-3.4-7.5-7.8c0-4.4,3.6-7.9,7.5-7.9c1.9,0,3.4,0.8,4.1,1.8h0.1
		v-1.3L114.5,263.9L114.5,263.9z M111.4,271.4c0-2.8-1.9-4.8-4.2-4.8c-2.4,0-4.4,2-4.4,4.8c0,2.7,2,4.7,4.4,4.7
		C109.6,276.1,111.4,274.1,111.4,271.4z"/>
	<path class="st6" d="M119.9,255.6v23.1h-3.4v-23.1H119.9z"/>
	<path class="st3" d="M133,273.9l2.7,1.8c-0.9,1.3-3,3.5-6.6,3.5c-4.5,0-7.8-3.5-7.8-7.9c0-4.7,3.4-7.9,7.4-7.9c4.1,0,6.1,3.3,6.7,5
		l0.4,0.9l-10.5,4.4c0.8,1.6,2.1,2.4,3.8,2.4C130.9,276.1,132.1,275.2,133,273.9L133,273.9z M124.8,271.1l7-2.9
		c-0.4-1-1.6-1.7-2.9-1.7C127.1,266.5,124.7,268,124.8,271.1z"/>
	<path class="st5" d="M52.5,269.3v-3.3h11.3c0.1,0.6,0.2,1.3,0.2,2c0,2.5-0.7,5.6-2.9,7.8c-2.1,2.2-4.9,3.4-8.5,3.4
		c-6.7,0-12.4-5.5-12.4-12.2s5.7-12.2,12.4-12.2c3.7,0,6.4,1.5,8.4,3.4l-2.4,2.4c-1.4-1.3-3.4-2.4-6-2.4c-4.9,0-8.8,4-8.8,8.9
		s3.8,8.9,8.8,8.9c3.2,0,5-1.3,6.2-2.4c0.9-0.9,1.6-2.3,1.8-4.1L52.5,269.3z"/>
</g>
<g>
	<path class="st7" d="M397.6,121.5c0.9,0,1.6,0.2,2,0.6c0.4,0.4,0.6,1,0.6,1.8v4.4h-1.4v-4.2c0-0.9-0.5-1.4-1.6-1.4
		c-0.4,0-0.9,0.1-1.3,0.4c0.1,0.3,0.1,0.6,0.1,0.8v4.4h-1.4v-4.2c0-0.9-0.5-1.4-1.6-1.4c-0.5,0-0.9,0.1-1.4,0.3v5.4h-1.4v-6.1
		c0.5-0.2,0.9-0.4,1.4-0.5c0.5-0.1,1.1-0.2,1.6-0.2c0.9,0,1.5,0.2,1.9,0.5C396.1,121.7,396.8,121.5,397.6,121.5z M405,128.5
		c-1.1,0-1.8-0.3-2.4-0.9c-0.5-0.6-0.8-1.5-0.8-2.6c0-2.3,1.1-3.5,3.2-3.5c1.1,0,1.9,0.3,2.4,0.9c0.5,0.6,0.8,1.5,0.8,2.6
		c0,1.1-0.3,2-0.8,2.6S406,128.5,405,128.5z M404.9,127.3c1.2,0,1.8-0.8,1.8-2.3c0-0.8-0.1-1.4-0.4-1.7c-0.3-0.4-0.7-0.6-1.4-0.6
		c-0.6,0-1.1,0.2-1.4,0.6c-0.3,0.4-0.4,1-0.4,1.7c0,0.8,0.1,1.3,0.4,1.7C403.9,127.1,404.3,127.3,404.9,127.3L404.9,127.3z
		 M412.7,121.5c1,0,1.7,0.3,2.2,0.9s0.8,1.4,0.8,2.5c0,1.3-0.3,2.2-0.9,2.8c-0.6,0.5-1.4,0.8-2.3,0.8c-1.9,0-2.8-0.5-2.8-1.5v-8h1.4
		v2.9c0.3-0.1,0.6-0.2,0.9-0.3C412.2,121.5,412.5,121.5,412.7,121.5L412.7,121.5z M412.4,127.3c0.7,0,1.2-0.2,1.5-0.6
		c0.3-0.4,0.4-1,0.4-1.7c0-0.7-0.2-1.3-0.5-1.7c-0.3-0.4-0.8-0.6-1.3-0.6c-0.3,0-0.5,0-0.8,0.1c-0.3,0.1-0.5,0.2-0.7,0.3v3.6
		C411,127.1,411.5,127.3,412.4,127.3L412.4,127.3z M417.3,119.3h1.5v1.3h-1.5V119.3z M417.3,121.7h1.4l0,6.6h-1.4V121.7z
		 M420.7,128.3v-9.2h1.4v9.2L420.7,128.3z M426.7,121.5c1,0,1.8,0.3,2.3,1c0.5,0.7,0.7,1.6,0.7,2.8H425c0,0.7,0.2,1.2,0.6,1.5
		c0.3,0.3,0.8,0.5,1.4,0.5c0.7,0,1.5-0.2,2.1-0.5v1.3c-0.7,0.3-1.5,0.5-2.3,0.5c-1,0-1.8-0.3-2.3-0.9c-0.6-0.6-0.8-1.5-0.8-2.6
		c0-1.1,0.3-2,0.8-2.6C424.9,121.8,425.7,121.5,426.7,121.5z M426.6,122.6c-0.5,0-0.8,0.1-1.1,0.4s-0.4,0.7-0.5,1.3h3.2
		c-0.1-0.6-0.2-1-0.5-1.2C427.5,122.8,427.1,122.6,426.6,122.6z M413.4,68c-1.5-0.4-2.7-0.6-3.5-0.6c-6.1,0-11.1,4.9-11.1,11
		c0,6.1,5,11,11.1,11s11.1-4.9,11.1-11c0-0.9-0.1-1.8-0.3-2.6l8.8-2.4c1.4,5.5,0.5,11.3-2.6,16.1l-14.6,27.1h-13.5l9.6-17.7
		c0.1-0.1-0.1-0.3-0.2-0.3c-10.3-0.9-18.3-9.5-18.3-20c0-11.1,9-20.1,20.2-20.1c2,0,4.1,0.3,6,0.9L413.4,68z"/>
	<circle class="st8" cx="409.9" cy="78.5" r="6.1"/>
	<path class="st8" d="M420.4,75.1c-0.3,0-0.5-0.2-0.6-0.4c-1-2.5-2.9-4.5-5.3-5.6c-0.3-0.2-0.5-0.6-0.3-0.9c0.2-0.3,0.6-0.5,0.9-0.3
		c2.8,1.3,4.9,3.5,6,6.3c0.1,0.4,0,0.8-0.4,0.9C420.5,75,420.4,75.1,420.4,75.1z M424.2,73.4c-0.3,0-0.5-0.2-0.6-0.4
		c-1.4-3.5-4.1-6.3-7.5-7.9c-0.3-0.2-0.5-0.6-0.3-0.9c0.2-0.3,0.6-0.5,0.9-0.3c3.7,1.8,6.7,4.8,8.2,8.6c0.1,0.4,0,0.8-0.4,0.9
		C424.4,73.4,424.3,73.4,424.2,73.4z M427.9,72.2c-0.3,0-0.5-0.2-0.6-0.4c-1.8-4.7-5.4-8.4-10-10.4c-0.3-0.2-0.5-0.6-0.4-0.9
		c0.2-0.3,0.6-0.5,0.9-0.4c2.4,1.1,4.6,2.6,6.5,4.5c1.8,1.9,3.3,4.2,4.3,6.6c0.1,0.4,0,0.8-0.4,0.9C428.1,72.1,428,72.2,427.9,72.2z
		"/>
</g>
<g>
	<path class="st9" d="M394.9,253.2c2.2,0,4.3,0.4,6.3,1.4c1.7,0.9,3.1,2.1,4.1,3.8c0.6,1.1,1,2.4,1.2,3.6c0.4,2.5,0,4.8-0.8,7.2
		c-0.5,1.4-1.1,2.6-1.8,3.9c-1.5,2.6-3.3,4.8-5.5,6.7c-2.8,2.5-5.8,4.7-9.1,6.6c-1.3,0.7-2.6,1.3-4,1.7c-0.9,0.2-1.8,0.3-2.7,0.3
		c-1.2,0-2.1-0.6-2.8-1.5c-0.7-0.8-1-1.8-1-2.9c0-0.3,0-0.6,0.1-0.9c0.4-1.5,1-3,1.9-4.3c0.7-1,1.5-1.9,2.5-2.6
		c1.1-0.7,2.4-1,3.8-0.7c0.4,0.1,0.8,0.3,1.2,0.5c0.9,0.6,0.8,1.6,0.4,2.3c-0.4,0.6-0.8,1.1-1.2,1.6c-0.8,0.8-1.6,1.6-2.4,2.4
		c-0.7,0.7-1.4,1.4-1.9,2.3c-0.3,0.4-0.5,0.9-0.6,1.4c-0.1,0.7,0.2,1.1,0.9,1.2c0.3,0,0.7,0,1-0.1c1-0.3,2-0.7,2.9-1.2
		c1.4-0.8,2.7-1.7,4-2.7c1.6-1.2,3.1-2.4,4.5-3.8c1.6-1.6,3-3.2,4.1-5.2c0.8-1.4,1.4-2.9,1.6-4.5c0.2-1.4,0.1-2.8-0.6-4.1
		c-0.3-0.6-0.8-1.2-1.4-1.6c-0.3-0.2-0.6-0.3-0.9-0.3c-1.2-0.2-2.3,0-3.5,0.3c-1.2,0.4-2.3,1-3.3,1.6c-2.3,1.4-4.6,2.7-6.8,4.3
		c-1.1,0.8-2.2,1.6-3.3,2.4c-1,0.7-1.9,1.5-3,2.1c-0.9,0.5-1.8,0.8-2.8,1.1c-1.2,0.2-2.3,0-3.3-0.6c-1.1-0.7-1.8-1.6-2.1-2.9
		c-0.2-0.8-0.1-1.6,0.1-2.3c0.3-1.1,0.8-2.2,1.4-3.1c1.5-2.4,3.5-4.4,5.7-6.2c3.3-2.6,7-4.6,10.9-6
		C390.6,253.6,392.7,253.3,394.9,253.2z"/>
	<path class="st9" d="M367.5,308.2c0-0.8-0.1-1.4-0.5-2c-0.2-0.3-0.5-0.5-0.8-0.6c-0.9-0.3-1.7-0.3-2.6,0c-0.7,0.2-1.4,0.5-2,0.8
		c-0.1,0-0.3,0.1-0.4,0.2c-0.3-0.8-0.6-1.6-1-2.4c0.5-0.2,0.9-0.5,1.4-0.7c1.1-0.5,2.2-0.8,3.3-0.8c1.2-0.1,2.3,0,3.4,0.6
		c1.2,0.6,2.1,1.5,2.4,2.9c0.1,0.2,0.1,0.4,0.1,0.5c0,1.7,0.1,3.4,0.1,5.2c0,1.2-0.1,2.4-0.1,3.5c0,0.2-0.1,0.3-0.2,0.4
		c-0.8,0.9-1.8,1.5-3,2c-1.2,0.4-2.5,0.6-3.8,0.5c-1.2-0.1-2.2-0.6-3.1-1.4c-0.9-0.8-1.5-1.8-1.7-3c-0.2-1.7,0.2-3.1,1.4-4.3
		c0.8-0.8,1.7-1.2,2.8-1.3c1.2-0.2,2.3-0.1,3.5-0.1L367.5,308.2z M367.4,310.8c-0.1,0-0.1,0-0.2,0c-0.4,0-0.8,0-1.2,0
		c-0.5,0-1,0-1.4,0.1c-0.5,0-1,0.2-1.4,0.5c-0.6,0.5-0.8,1.3-0.7,2.1c0.2,1,0.8,1.7,1.7,2c0.5,0.2,1.1,0.2,1.6,0.1
		c0.5-0.1,0.9-0.3,1.3-0.6c0.1-0.1,0.2-0.2,0.2-0.4c0-0.4,0.1-0.7,0.1-1.1c0-0.8,0-1.6,0-2.4C367.4,310.9,367.4,310.9,367.4,310.8z"
		/>
	<path class="st9" d="M407.6,310.8c-2.9,0-5.7-0.1-8.5,0c0,0.2,0,0.4,0,0.6c0.1,0.8,0.2,1.5,0.6,2.2c0.2,0.6,0.6,1.1,1.1,1.4
		c0.8,0.6,1.7,0.7,2.6,0.6c0.8-0.1,1.5-0.4,2.2-0.7c0.3-0.1,0.6-0.3,1-0.4c0.3,0.7,0.7,1.4,1,2.1c-0.1,0-0.1,0.1-0.2,0.1
		c-1.4,0.8-2.9,1.4-4.5,1.5c-1.5,0.1-2.9-0.1-4.1-0.9c-0.9-0.6-1.5-1.3-2-2.2c-0.6-1.1-1-2.3-1.1-3.5c-0.2-2.3,0.3-4.4,1.4-6.4
		c0.8-1.4,2-2.1,3.6-2.4c1.4-0.2,2.9,0,4.1,0.7c0.7,0.4,1.2,1,1.6,1.7c0.5,0.9,0.8,1.9,0.9,2.9c0.1,0.8,0.1,1.6,0.2,2.5
		C407.6,310.6,407.6,310.7,407.6,310.8z M404.1,308.2c-0.2-0.8-0.3-1.5-0.8-2.2c-0.2-0.3-0.6-0.5-1-0.6c-1-0.3-2.1,0.2-2.6,1.2
		c-0.2,0.4-0.3,0.7-0.4,1.1c-0.1,0.2-0.1,0.3-0.1,0.5C399.6,308.3,403.9,308.3,404.1,308.2L404.1,308.2z"/>
	<path class="st9" d="M388.9,299.2l3.4-0.5v4.2c0.8,0,1.5,0,2.2,0.1v2.6c-0.7,0-1.5,0-2.2,0c0,0.1,0,0.3,0,0.4c0,2.5,0,5,0,7.5
		c0,0.4,0,0.8,0.1,1.2c0.1,0.6,0.4,1,1,1.1c0.3,0.1,0.6,0.1,1,0.2l0.3,0.1v2.2c0,0-0.1,0-0.1,0c-1,0-1.9,0-2.9-0.3
		c-0.9-0.3-1.7-0.8-2.2-1.6c-0.3-0.5-0.4-1-0.5-1.5c0-0.3-0.1-0.7-0.1-1c0-4.7,0-9.4,0-14.2L388.9,299.2z"/>
	<path class="st9" d="M409.5,299.2l3.3-0.6v0.5c0,4.3,0,8.6,0,12.9c0,0.8,0,1.6,0,2.4c0,0.8,0.3,1.2,1,1.4c0.3,0.1,0.5,0.1,0.8,0.2
		c0.2,0,0.3,0,0.5,0.1v2.2c0,0,0,0-0.1,0c-0.9,0-1.9,0-2.8-0.2c-0.6-0.2-1.1-0.4-1.5-0.8c-0.8-0.7-1.2-1.6-1.3-2.6
		c0-0.3,0-0.6,0-0.9c0-4.7,0-9.4,0-14.1V299.2z"/>
	<path class="st9" d="M382.2,317.9h-3.3c0-0.1,0-0.3,0-0.4c0-2,0-4,0-6c0-1.6,0-3.2,0-4.8c0-0.3,0-0.6,0.1-0.9
		c0-0.3,0.2-0.6,0.5-0.8c1.3-1.3,2.9-2,4.7-2.4c1.1-0.2,2.3-0.2,3.4,0c0.1,0,0.1,0,0.2,0c0,0,0.1,0,0.1,0c-0.4,1-0.8,1.9-1.3,2.8
		c-0.5,0-1,0-1.5,0c-0.8,0-1.7,0.2-2.4,0.6c-0.2,0.1-0.3,0.2-0.3,0.5c0,3.6,0,7.3,0,10.9L382.2,317.9z"/>
	<path class="st9" d="M376.4,303c0,5,0,10,0,14.9h-3.3c0-0.1,0-0.2,0-0.4c0-3.1,0-6.3,0-9.4c0-1.4,0-2.9,0-4.3c0-0.1,0-0.2,0-0.4
		L376.4,303z"/>
	<path class="st9" d="M374.7,301.5c-1.6,0-2.6-1.6-1.9-3.1c0.4-0.9,1.1-1.3,2.1-1.3c1.3,0,2.3,1.4,2,2.7
		C376.6,300.9,375.8,301.5,374.7,301.5z"/>
</g>
<g>
	<polygon class="st10" points="241,349.5 245.9,347.7 241,345.8 241,343.3 249.4,346.7 249.4,348.8 241,352.2 	"/>
	<path d="M194.6,365.7c-1.8,0-3.2-0.9-3.2-2.9v-0.1c0-2.4,2.1-3.2,4.6-3.2h1.2V359c0-1-0.4-1.6-1.5-1.6c-0.9,0-1.4,0.5-1.5,1.3h-2.6
		c0.2-2.2,1.9-3.2,4.2-3.2c2.3,0,4.1,1,4.1,3.4v6.6h-2.7v-1.1C196.8,365.1,195.9,365.7,194.6,365.7z M197.2,362.3v-0.9h-1.1
		c-1.4,0-2,0.4-2,1.3v0.1c0,0.7,0.4,1.1,1.4,1.1C196.4,363.8,197.2,363.3,197.2,362.3z M206.2,365.7c-2.7,0-4.7-1.7-4.7-5v-0.2
		c0-3.3,2.1-5.1,4.7-5.1c2.2,0,4.1,1.1,4.3,3.7h-2.6c-0.2-0.9-0.7-1.6-1.6-1.6c-1.1,0-2,0.9-2,2.9v0.3c0,2,0.7,2.9,2,2.9
		c0.9,0,1.6-0.7,1.8-1.8h2.5C210.4,364.1,208.9,365.7,206.2,365.7z M216.4,365.7c-2.7,0-4.7-1.7-4.7-5v-0.2c0-3.3,2.1-5.1,4.7-5.1
		c2.2,0,4.1,1.1,4.3,3.7h-2.6c-0.2-0.9-0.7-1.6-1.6-1.6c-1.1,0-2,0.9-2,2.9v0.3c0,2,0.7,2.9,2,2.9c0.9,0,1.6-0.7,1.8-1.8h2.5
		C220.6,364.1,219.1,365.7,216.4,365.7z M226.7,365.7c-2.8,0-4.7-1.7-4.7-5v-0.2c0-3.3,2-5.1,4.7-5.1c2.5,0,4.5,1.4,4.5,4.6v1.2
		h-6.4c0.1,1.8,0.9,2.5,2,2.5c1,0,1.6-0.6,1.8-1.3h2.6C230.8,364.3,229.3,365.7,226.7,365.7z M224.8,359.5h3.6
		c-0.1-1.5-0.7-2.1-1.8-2.1C225.8,357.4,225,357.9,224.8,359.5z M232.8,355.7h2.8v1.5c0.5-0.9,1.5-1.7,3-1.7c1.8,0,3,1.1,3,3.4v6.6
		h-2.8v-6.2c0-1.1-0.5-1.7-1.5-1.7c-0.9,0-1.7,0.6-1.7,1.8v6h-2.8L232.8,355.7L232.8,355.7z M246.6,352.7v3h1.9v2h-1.9v4.6
		c0,0.7,0.3,1.1,1,1.1c0.4,0,0.7-0.1,0.9-0.2v2.1c-0.3,0.1-0.9,0.2-1.6,0.2c-2.1,0-3.1-1-3.1-3v-5h-1.1v-2h1.1v-1.8L246.6,352.7z
		 M258.8,365.5h-2.7V364c-0.5,0.9-1.4,1.7-2.9,1.7c-1.8,0-3.1-1.1-3.1-3.4v-6.6h2.8v6.3c0,1.1,0.5,1.7,1.4,1.7s1.7-0.6,1.7-1.8v-6.1
		h2.8V365.5z M260.8,355.7h2.8v1.8c0.6-1.3,1.5-1.9,3-1.9v2.7c-1.9,0-3,0.6-3,2.2v5.1h-2.8V355.7z M272.1,365.7
		c-2.8,0-4.7-1.7-4.7-5v-0.2c0-3.3,2-5.1,4.7-5.1c2.5,0,4.5,1.4,4.5,4.6v1.2h-6.4c0.1,1.8,0.9,2.5,2,2.5c1,0,1.6-0.6,1.8-1.3h2.6
		C276.2,364.3,274.7,365.7,272.1,365.7z M270.1,359.5h3.7c-0.1-1.5-0.7-2.1-1.8-2.1C271.2,357.4,270.4,357.9,270.1,359.5z"/>
</g>
<defs>
	<inkscape:perspective  id="perspective3392"></inkscape:perspective>
</defs>
<sodipodi:namedview  bordercolor="#666666" borderopacity="1.0" gridtolerance="5" guidetolerance="10" id="base" objecttolerance="10" pagecolor="#ffffff" showgrid="true" units="pt">
	
		<inkscape:grid  empspacing="8" enabled="true" id="grid3704" spacingx="9pt" spacingy="9pt" type="xygrid" units="pt" visible="true">
		</inkscape:grid>
</sodipodi:namedview>
<g id="layer1">
	<path id="path157" class="st11" d="M376.1,452.1c-3.6,0-6,2.8-6,6.6c0,3.7,2.2,6,5.7,6c2.3,0,4-1.1,4.7-2.2l-0.3-0.4
		c-0.7,1-2.2,1.7-3.8,1.7c-2.8,0-4.5-2.3-4.5-5.8c0-3.4,1.6-5.3,4.3-5.3c2.1,0,3.3,1.1,3.8,3.1h0.4l-0.1-3.6h-0.3
		c-0.1,0.3-0.3,0.4-0.7,0.4C378.5,452.6,377.9,452.1,376.1,452.1z M336.4,438.3v0.4c0.6,0.1,1.5,0.3,1.5,1.7l-0.4,7.3
		c-0.1,1.6-0.5,2.1-1.6,2.3v0.4h3.8v-0.4c-1.2-0.2-1.5-0.6-1.4-2.2l0.3-7.4l3.8,9.8h0.5l3.8-9.8l0.4,7.9c0.1,1.2-0.3,1.6-1.2,1.7
		v0.4h4.3v-0.4c-1.1-0.1-1.5-0.6-1.5-2l-0.4-7.5c0-1.1,0.4-1.6,1.4-1.6v-0.4h-3l-3.5,9.2l-3.6-9.3H336.4z M357.8,438.3v0.4
		c1.3,0.1,1.4,0.4,1.4,3.5v4.1c0,3.3-0.1,3.6-1.4,3.7v0.4h4.3v-0.4c-1.4-0.2-1.4-0.3-1.4-3.9v-0.7l0.6-0.6c1.4,1.8,3,3.7,4.6,5.6
		h2.9h4v-0.4c-1.2-0.1-1.2-0.1-1.2-2.7v-4.4h-2.8v0.4c1.2,0,1.4,0.1,1.4,2.2v1.8c0,2.6,0,2.7-1.3,2.7c-0.7-0.1-1.3-0.3-3.5-2.7
		c-0.8-1-2.2-2.6-3-3.6l2.6-2.9c1.3-1.4,1.9-2.1,3.1-2.1v-0.4h-4v0.4c0.5,0.1,0.7,0.3,0.7,0.7c0,0.3-0.1,0.7-0.8,1.5l-3.2,3.5v-2.3
		c0-3.1,0.1-3.3,1.4-3.4v-0.4H357.8z M370.7,438.8c-0.5,0-0.9,0.4-0.9,1c0,0.5,0.4,1,0.9,1c0.5,0,1-0.4,1-1
		C371.7,439.2,371.3,438.8,370.7,438.8z M361.5,453c-1.1,0-2.3,0.7-2.3,2.3c0,0.6,0.2,1.1,0.5,1.8c-1.5,0.5-2.4,1.8-2.4,3.4
		c0,2.8,2.1,4.3,4.5,4.3c1.5,0,2.7-0.5,3.7-1.4c0.7,0.5,1.3,0.9,1.7,1.1h2.6V464c-0.8-0.1-2.1-0.8-3.4-1.8c0.5-0.8,0.6-1.9,0.7-2.8
		c0.1-0.7,0.6-0.7,1-0.8v-0.3h-3.4v0.3c0.8,0.1,1.6,0.2,1.6,1.4c0,0.6-0.1,1.3-0.4,1.7c-3-2.3-5.7-5.5-5.7-7.1
		c0-0.8,0.5-1.2,1.3-1.2c1,0,1.9,0.6,2.3,1.9h0.3l0-2.3h-0.3c0,0.1-0.2,0.2-0.2,0.2C363.1,453.4,362.5,453,361.5,453z M385.8,442.7
		c-1.5,0-2.4,1-2.4,2.1c0,2.5,4.3,2,4.3,4.1c0,0.7-0.6,1.1-1.7,1.1c-1.1,0-2-0.6-2.3-1.9h-0.4c0,0.5,0.1,1.6,0.2,1.7
		c0.3,0.5,1.5,0.7,2.5,0.7c1.8,0,2.9-1,2.9-2.3c0-2.8-4.3-2.3-4.3-4.1c0-0.6,0.6-0.9,1.3-0.9c1.4,0,2,1.3,2.1,1.7h0.3
		c0-1.1-0.1-1.8-0.2-1.9C387.9,443,386.9,442.7,385.8,442.7z M393.7,442.7c-2.2,0-3.6,1.7-3.6,4.1c0,1.9,1,3.7,3.6,3.7
		c1.1,0,2.3-0.4,3.1-1.2l-0.2-0.4c-0.7,0.4-1.4,0.6-2.2,0.6c-2.1,0-2.9-1.9-2.9-3.6h5.2C396.7,444.3,395.8,442.7,393.7,442.7z
		 M385.4,456.7c-2.3,0-4,1.7-4,3.9c0,1.5,0.6,2.7,1.6,3.4c0.6,0.4,1.4,0.6,2.3,0.6c2.3,0,4-1.7,4-3.9c0-1.4-0.6-2.6-1.6-3.3
		C387,456.9,386.2,456.7,385.4,456.7z M354.6,442.7c-2.2,0-3.9,2-3.9,4.2c0,1.8,1,3.6,3.6,3.6c1.1,0,2.3-0.4,3.1-1.2l-0.2-0.4
		c-0.7,0.4-1.5,0.6-2.2,0.6c-2.1,0-2.9-1.8-2.9-3.6c0-0.9,0.2-1.5,0.6-1.9c0.4-0.4,0.9-0.5,1.4-0.5c0.7,0,1.6,0.3,2.2,1.1l0.1,0
		c0.2-0.3,0.5-0.9,0.5-1.3C356.3,443,355.5,442.7,354.6,442.7z M378.8,442.7c-1,0-2,0.5-2.7,1.4v-1.3h-2.8v0.4
		c1.2,0,1.4,0.1,1.4,2.2v1.8c0,2.7,0,2.7-1.3,2.7v0.4h4v-0.4c-1.2-0.1-1.2-0.1-1.2-2.7v-2c0-0.7,0.9-1.5,2.1-1.5
		c0.9,0,1.6,0.4,1.6,2.2v1.5c0,2.5-0.1,2.5-1.2,2.6v0.4h3.9v-0.4c-1.3-0.1-1.3-0.1-1.3-2.6v-1.7C381.3,443.4,380,442.7,378.8,442.7z
		 M395.4,456.8c-1,0-2,0.6-2.6,1.4v-1.3H390v0.4c1.2,0,1.4,0.1,1.4,2.2v2.1c0,2.4,0,2.4-1.3,2.4v0.4h4V464c-1.1-0.1-1.2-0.1-1.2-2.5
		v-2.2c0-0.8,1-1.6,2-1.6c1.1,0,1.6,0.6,1.6,2.1v1.5c0,2.5-0.1,2.6-1.1,2.6v0.4h3.7V464c-1.2-0.1-1.2-0.2-1.2-2.6v-2.1
		c0-0.8,1-1.6,2.1-1.6c0.9,0,1.5,0.6,1.5,2.1v1.7c0,2.3,0,2.4-1.1,2.4v0.4h3.9V464c-1.4-0.1-1.3-0.2-1.3-2.4v-1.9
		c0-2.1-1.1-2.9-2.4-2.9c-1.2,0-2.2,0.7-2.9,1.6C397.4,457.4,396.7,456.8,395.4,456.8z M409.7,456.8c-1.1,0-2,0.5-2.6,1.2v-1.1h-2.7
		v0.4c1.2,0,1.3,0.1,1.3,2.6v5.1c0,2.7,0.1,2.9-1.2,2.9v0.4h4v-0.4c-1.4,0-1.3-0.3-1.3-3.1v-1c0.6,0.6,1.5,0.8,2.3,0.8
		c2.3,0,3.7-1.7,3.7-4C413.1,458.4,411.7,456.8,409.7,456.8z M417,456.8c-0.8,0-2,0.3-2.7,0.9c0,0.4,0.4,1,0.6,1.3l0.2,0
		c0.3-0.8,0.9-1.4,1.8-1.4c1,0,1.4,0.7,1.4,1.5v0.9c0,0.6-2.5,0.7-3.5,1.5c-0.4,0.3-0.6,0.7-0.6,1.3c0,1.2,0.8,1.9,2.1,1.9
		c0.8,0,1.4-0.3,2.1-1c0.1,0.5,0.6,0.8,1.3,0.8h1.8h3.9V464c-1.2-0.1-1.2-0.1-1.2-2.7v-2c0-0.7,1-1.5,2.1-1.5c0.9,0,1.6,0.4,1.6,2.2
		v1.5c0,2.5-0.1,2.5-1.2,2.6v0.4h3.9V464c-1.3-0.1-1.3-0.1-1.3-2.6v-1.7c0-2.3-1.2-3-2.4-3c-1,0-2,0.5-2.7,1.4v-1.3h-2.8v0.4
		c1.2,0,1.4,0.1,1.4,2.2v1.8c0,2.7,0,2.7-1.3,2.7H421c-1,0-1.2-0.4-1.2-1.8v-2.5c0-0.5-0.1-0.9-0.2-1.3
		C419.3,457.2,418.4,456.8,417,456.8z M397,442.9v0.4c0.9,0,0.9,0.2,2.1,2.7l2,4.3c-0.7,1.7-1.7,2.6-3.8,3.1c0.1,0.4,0.5,1,0.7,1.2
		c2.8-1.1,3.3-3,4.3-5.8l1.5-4.2c0.3-1,0.9-1.4,1.4-1.4v-0.4h-2.7v0.4c0.6,0,1,0.4,0.7,1.1l-1.4,4.2l-1.4-3.3
		c-0.4-0.9-0.5-1.3-0.5-1.6c0-0.3,0.2-0.5,0.7-0.5v-0.4H397z M430.1,457v0.4c0.9,0,0.9,0.2,2.1,2.7l1.9,4.3
		c-0.7,1.7-1.7,2.6-3.8,3.1c0.1,0.4,0.5,1,0.7,1.2c2.8-1.1,3.3-3,4.3-5.8l1.5-4.2c0.3-1,0.9-1.4,1.4-1.4V457h-2.7v0.4
		c0.6,0,1,0.4,0.8,1.1l-1.4,4.2l-1.4-3.3c-0.4-0.9-0.5-1.3-0.5-1.6c0-0.3,0.2-0.5,0.7-0.5V457H430.1z M393.4,443.3
		c1.2,0,1.9,0.8,1.9,2.1h-3.8C391.6,444.1,392.2,443.3,393.4,443.3z M385.1,457.3c1.3,0,2.7,1.3,2.7,3.8c0,1.7-0.8,2.8-2.3,2.8
		c-1.4,0-2.6-1.2-2.6-3.8C382.8,458.3,383.7,457.3,385.1,457.3z M359.9,457.5c1,1.9,3,3.8,5.1,5.3c-0.6,0.5-1.7,0.6-2.5,0.6
		c-2.2,0-3.9-1.6-3.9-3.6C358.5,458.6,359.1,457.8,359.9,457.5z M409.1,457.7c1.5,0,2.5,1.2,2.5,3.1c0,1.9-0.8,3.2-2.3,3.2
		c-1,0-2.1-0.6-2.1-1.3V459C407.2,458.4,408.1,457.7,409.1,457.7z M418.3,460.5v2.1c0,0.6-0.8,1.1-1.5,1.1c-0.6,0-1.2-0.4-1.2-1.3
		C415.7,460.9,417.3,461.1,418.3,460.5z"/>
</g>
<path class="st12" d="M133.8,447.6c8.5-6.9,25.8-31.9-1.3-27.5c-11.8,1.8-29.2,13.3-32.7,26.6c-1.8-3.6-3.8-6.9-6-10.3
	c-3.3-4.5-7.1-1-3.5,3.6c10.6,12.9,16.8,28.9,17.5,45.6c0.8-8-0.5-17.8-3.7-27.4c1.6,0.5,3.3,0.7,4.9,0.7c5.5,9.1,14,16.9,23.4,20.5
	c8.7,3.5,20.3,1.4,15.5-12.6C145.5,459,139.6,452.3,133.8,447.6z M135,423.3c15.1-1.7-1.1,17.1-6.3,20.6c-4.9-3.2-11.1-6.1-17.1-5.3
	C115.8,433,126.4,424.4,135,423.3z M111.4,442.7c4.1-0.4,8.5,1.9,12,4.3c-3.3,1.7-6.9,2.6-10.6,3C107.2,450,106,443.1,111.4,442.7z
	 M132.2,471.8c-7.1-2-13.8-7.8-18.5-13.5c3.9-0.8,7.9-2.4,11.5-4.5c1.3-0.6,2.6-1.6,3.8-2.4c4.2,3.8,8.6,9,10.3,14.8
	C140.9,472.6,136.4,473,132.2,471.8z"/>
</svg>
