<?xml version="1.0" encoding="utf-8"?>
<!-- Generator: Adobe Illustrator 25.0.0, SVG Export Plug-In . SVG Version: 6.00 Build 0)  -->
<svg version="1.1" id="Layer_1" xmlns="http://www.w3.org/2000/svg" xmlns:xlink="http://www.w3.org/1999/xlink" x="0px" y="0px"
	 viewBox="0 0 1000 249.9" style="enable-background:new 0 0 1000 249.9;" xml:space="preserve">
<style type="text/css">
	.st0{fill:#0124DD;}
	.st1{fill:#114185;}
	.st2{fill:#FE6309;}
</style>
<path class="st0" d="M531.1,15c0.1-0.2,0.3-0.2,0.5,0l-0.3,0.2L531.1,15z"/>
<path class="st1" d="M301.4,91.9c2.9-8.7,5.6-17,8.3-25.2c0.3-1,1-1.2,1.9-1.4c14.5-2.7,29-5,43.8-4.3c10.4,0.5,20.5,2.6,29.4,8.2
	c12.2,7.6,17.8,19,18.5,33c0.5,8-0.9,16-2,23.9c-2.4,16.1-4.9,32.1-7.2,48.2c-0.1,1.4-1,2.6-2.3,3.1c-9.4,5.2-19.6,8-30.1,9.7
	c-13,2.3-26.2,2.6-39.3,1c-10.9-1.4-21.1-4.8-29-12.8c-13.7-14-13.4-36.5,0.6-50.2c0.7-0.7,1.5-1.4,2.3-2c8.1-6.7,17.7-10,27.8-12.1
	c15.3-3.2,30.8-2.8,46.2-1.6c1.9,0.1,2.4-0.5,2.4-2.2c0.7-12.1-6.5-20.7-19.3-23c-8.8-1.6-17.5-0.2-26.1,1.2
	C318.5,86.8,309.8,88.9,301.4,91.9z M355.4,128.2c-5.5,0-11,0.4-16.4,1.2c-5.9,1-11.6,2.5-16.3,6.5c-5.4,4.4-6.8,10.3-5.7,16.9
	c1,6,5.2,9.2,10.5,11.1c2.5,0.9,5,1.4,7.6,1.7c9.6,0.9,19-0.8,28.3-3c1.3-0.2,2.3-1.3,2.3-2.6c1.3-9.5,2.5-18.9,3.9-28.3
	c0.2-1.6-0.3-1.9-1.7-2.2C363.8,128.7,359.6,128.3,355.4,128.2z"/>
<path class="st1" d="M747.8,157.7c-1.6,4.9-3,9.2-4.5,13.6c-1.2,3.6-2.4,7.1-3.6,10.7c-0.2,1.1-1.1,2-2.2,2.2
	c-15.3,4.1-30.8,6.3-46.6,4.3c-18-2.3-32.9-10-42-26.5c-5.6-10.2-7.4-21.3-6.6-32.8c1.5-21.8,10.5-39.9,27.4-53.9
	c10.3-8.5,22.2-12.9,35.4-14.2c9.1-0.9,18.1-0.7,27,1.8c18.1,5,30.1,19,32.4,37.6c1.3,10.7,0,21.2-1.7,31.7
	c-0.2,1.3-0.9,1.4-1.9,1.4c-4.8,0-9.7,0-14.6,0c-23.3,0-46.7,0-70,0c-1.9,0-2.4,0.5-2.5,2.4c-0.3,15.7,8.4,26.1,23.9,28.8
	c11.4,2,22.5,0.3,33.6-2.2C737,161.3,742.5,159.7,747.8,157.7z M707,113.1h22.4c6.8,0,6.8,0,7.1-6.8c0.5-13.9-8-22.9-21.8-23.6
	c-16.5-0.9-32,11-36,28.7c-0.3,1.5,0,1.8,1.5,1.8C689.1,113.1,698,113.1,707,113.1z"/>
<path class="st1" d="M805.3,188.9c-14.7-0.1-29.3-2.5-43.2-7.2c-1.4-0.5-1.8-0.9-1.3-2.4c2.3-6.9,4.5-13.9,6.6-20.9
	c0.5-1.7,1.1-1.6,2.5-0.9c13.4,6.5,28.5,8.7,43.1,6.1c3.4-0.5,6.7-1.9,9.5-3.9c4.8-3.3,6-9.9,2.7-14.8c-0.4-0.6-0.9-1.2-1.5-1.7
	c-2.5-2.4-5.4-4.3-8.5-5.9c-7.7-4.3-15.4-8.3-22.7-13.2c-19.5-13.4-17.2-41.2,2.1-53.4c8.5-5.4,17.8-8.1,27.8-9.1
	c16.5-1.7,32.5,1.1,48.2,5.9c1.4,0.4,1.8,0.8,1.3,2.4c-2.4,6.6-4.7,13.2-6.8,19.8c-0.6,1.8-1.2,1.6-2.6,1c-9.8-4.6-20.6-7-31.5-6.8
	c-5.3,0.1-10.4,1-14.9,4.1c-3.9,2.5-5.7,7.3-4.3,11.7c0.9,2.4,2.5,4.5,4.6,5.9c4.6,3.5,9.9,5.8,15,8.6c6.2,3.2,12.1,7,17.7,11.2
	c16.5,13.1,14.8,38-1,50.7c-10.2,8.2-22.1,11.4-34.8,12.6C810.1,188.8,806.9,188.9,805.3,188.9z"/>
<path class="st1" d="M913.2,188.9c-14.5-0.1-28.9-2.5-42.6-7.1c-1.6-0.5-2-1-1.4-2.7c2.3-6.8,4.4-13.6,6.5-20.4
	c0.5-1.7,1-1.9,2.6-1.1c13.3,6.5,28.3,8.6,42.9,6.1c3.1-0.5,6.1-1.6,8.8-3.3c6.6-4.2,7.4-12,1.8-17.4c-2.3-2.1-5-3.9-7.8-5.3
	c-8-4.5-16.3-8.6-23.8-14c-17.4-12.5-15.2-35.3-4.6-46.7c7.2-7.7,16.2-11.8,26.2-14c13.3-3,26.6-2.3,39.9,0.2c5.6,1,11.1,2.5,16.6,4
	c1.8,0.5,2.5,1,1.7,3.1c-2.3,6.3-4.4,12.6-6.5,19c-0.6,1.8-1.1,2-2.9,1.2c-9.7-4.6-20.3-6.9-31.1-6.8c-5,0.1-9.8,0.8-14.2,3.5
	c-4.1,2.5-6.2,6.1-5.6,11c0.4,3.1,2.3,5.3,4.7,7.1c5,3.8,10.8,6.3,16.2,9.3c6.2,3.4,12.3,7,17.7,11.6c15.2,13,13.5,37.1-1.8,49.5
	c-8.2,6.7-17.7,10.1-27.9,11.9C923.6,188.4,918.4,188.9,913.2,188.9z"/>
<path class="st1" d="M517,159.5c-0.5,3-1.8,5.7-2.8,8.5c-1.8,5.4-3.7,10.7-5.5,16.1c-0.3,1.1-1.2,1.9-2.4,2c-12,2-24.1,3.3-36.3,2.3
	c-18.2-1.4-33.8-8-44.5-23.5c-7.6-10.9-10.2-23.3-9.6-36.4c1.1-21.8,10.4-39.6,27.4-53.3c9.8-7.8,21.2-11.7,33.5-13.3
	c15.1-2.1,30.6-1.2,45.3,2.7c2.8,0.8,5.5,1.9,8.3,2.8c1,0.3,1.3,0.8,0.9,1.8c-2.4,6.9-4.7,13.8-6.9,20.8c-0.5,1.5-1.2,1.2-2.2,0.8
	c-7.1-2.9-14.5-4.6-22.1-5.2c-16.5-0.9-30.8,3.6-41.1,17.3c-9.6,12.9-11.1,34.2-0.8,47.1c6.4,8,14.9,12.2,24.9,13.4
	c10.8,1.3,21.3-0.8,31.6-3.8c0.7-0.2,1.3-0.3,2-0.5L517,159.5z"/>
<path class="st1" d="M631,159.4c-2.3,6.6-4.9,13.2-6.8,19.9c-1.4,4.9-3.7,7.3-9.1,7.8c-15,1.5-30,3.2-45-0.8
	c-23.6-6.3-39-25.1-40.3-49.5c-1.4-26.6,8.8-47.8,30.2-63.5c9-6.6,19.5-9.7,30.5-11.1c15.1-2.1,30.5-1.2,45.3,2.7
	c2.7,0.8,5.4,1.9,8.1,2.7c1.4,0.4,1.5,1.1,1,2.3c-2.3,6.7-4.6,13.4-6.7,20.1c-0.5,1.6-1.1,1.5-2.4,1c-10.5-4-21.2-6.2-32.5-5
	c-19.2,2.1-33.8,14.8-37.5,33.5c-2.7,13.5-0.2,25.8,10.5,35.4c8.6,7.6,19,9.7,30.1,9.1c7.8-0.5,15.6-2,23.1-4.4
	C629.9,159.4,630.3,159,631,159.4z"/>
<polygon class="st2" points="250,131.8 125.5,7.3 125.5,26.4 230.9,131.8 231,131.9 139.6,223.2 139.5,223.1 48.2,131.8 48.2,131.8 
	93,86.9 73.5,86.9 28.7,131.8 28.7,131.8 139.5,242.6 139.5,242.6 250.1,131.9 "/>
<polygon class="st2" points="125.4,39.5 125.4,58.7 198.6,131.9 139.7,190.9 80.6,131.8 80.6,131.8 125.4,86.9 105.9,86.9 
	61.1,131.8 61.1,131.8 129.9,200.6 139.5,210.2 149.3,200.5 217.8,131.9 "/>
<path class="st2" d="M185.5,131.8L149,95.3l-9.7-9.7l-9.6,9.6L93,131.8l0,0l36.7,36.7l9.6,9.6l9.8-9.8l36.5-36.4L185.5,131.8z
	 M139.5,158.8l-27-27l-0.1-0.1l26.9-26.9l27,27l0,0L139.5,158.8z"/>
</svg>
