<svg xmlns="http://www.w3.org/2000/svg" width="458" height="501" viewBox="0 0 458 501"><defs><style>.a{fill:#fff;}.b{fill:#010202;}.c{fill:#ff4a00;}.d{fill:#ea4335;}.e{fill:#fbbc05;}.f{fill:#4285f4;}.g{fill:#34a853;}.h{fill:#006e53;fill-rule:evenodd;}.i{fill:#d6e806;}.j{fill:#e20010;}.k{fill:#a100ff;}.l{fill:#24477f;}.m{fill:#f5a623;}</style></defs><circle class="a" cx="95" cy="68" r="68"/><circle class="a" cx="68" cy="250" r="68"/><circle class="a" cx="231" cy="165" r="68"/><circle class="a" cx="367" cy="267" r="68"/><circle class="a" cx="390" cy="73" r="68"/><circle class="a" cx="214" cy="334" r="68"/><circle class="a" cx="367" cy="433" r="68"/><circle class="a" cx="99" cy="432" r="68"/><path class="b" d="M74.7,95.3a7.6,7.6,0,0,0,1.6,2.6,8.1,8.1,0,0,0,2.4,1.7,10.6,10.6,0,0,0,3.1.5,8,8,0,0,0,3-.6,6.6,6.6,0,0,0,2.4-1.7,6.8,6.8,0,0,0,1.6-2.6,8.8,8.8,0,0,0,.6-3.3V72.7h4.7v31.1H89.5v-2.9a11.5,11.5,0,0,1-8.3,3.4,11.8,11.8,0,0,1-4.6-.9,10.3,10.3,0,0,1-3.7-2.4,11.4,11.4,0,0,1-2.5-3.9,13.1,13.1,0,0,1-.9-5V72.7h4.6V91.9A9.7,9.7,0,0,0,74.7,95.3Z" transform="translate(-20 -20.5)"/><path class="b" d="M102.1,72.7V84a11.3,11.3,0,0,1,3.6-2.4,9.5,9.5,0,0,1,4.4-1,12,12,0,0,1,4.7,1,10.9,10.9,0,0,1,3.8,2.5,12.5,12.5,0,0,1,2.5,3.8,12.2,12.2,0,0,1,0,9.2,12.1,12.1,0,0,1-2.5,3.7,11.2,11.2,0,0,1-3.8,2.6,11.9,11.9,0,0,1-4.7.9,10.8,10.8,0,0,1-4.4-.9,10.1,10.1,0,0,1-3.6-2.5v2.9H97.6V72.7Zm.5,22.9a8.1,8.1,0,0,0,1.7,2.4,6.2,6.2,0,0,0,2.5,1.7,6.8,6.8,0,0,0,6,0,6.2,6.2,0,0,0,2.5-1.7,8.1,8.1,0,0,0,1.7-2.4,8.3,8.3,0,0,0,0-6.2,8.1,8.1,0,0,0-4.2-4.2,7.3,7.3,0,0,0-3-.6,8,8,0,0,0-3,.6,8.5,8.5,0,0,0-2.5,1.7,9.2,9.2,0,0,0-1.7,2.5,8.3,8.3,0,0,0,0,6.2Z" transform="translate(-20 -20.5)"/><path class="b" d="M124.6,87.9a13.1,13.1,0,0,1,2.4-3.7,10.8,10.8,0,0,1,3.7-2.6,11.8,11.8,0,0,1,4.6-.9,11.5,11.5,0,0,1,8.1,3.3,12.3,12.3,0,0,1,2.4,3.8,14,14,0,0,1,.8,4.7v1.4H128.2a11.4,11.4,0,0,0,.9,2.6,6.5,6.5,0,0,0,1.7,2,8.3,8.3,0,0,0,2.2,1.4,8.6,8.6,0,0,0,2.7.5,7.8,7.8,0,0,0,6.5-3.4l3.3,2.4a12.2,12.2,0,0,1-4.2,3.6,12.8,12.8,0,0,1-5.6,1.3,11.9,11.9,0,0,1-4.7-.9,10.1,10.1,0,0,1-3.8-2.5,11.2,11.2,0,0,1-2.6-3.8,12.2,12.2,0,0,1,0-9.2Zm6.2-1.7a6.9,6.9,0,0,0-2.5,4.2h13.8a6.9,6.9,0,0,0-2.5-4.2,6.3,6.3,0,0,0-4.4-1.6A6.5,6.5,0,0,0,130.8,86.2Z" transform="translate(-20 -20.5)"/><path class="b" d="M155,86.7a6.1,6.1,0,0,0-1.4,4.2v12.9h-4.5V81.1h4.5v2.8a5,5,0,0,1,2.2-2.1A5.5,5.5,0,0,1,159,81h1.5v4.1h-1.8A4.7,4.7,0,0,0,155,86.7Z" transform="translate(-20 -20.5)"/><path class="c" d="M260.5,182.6h-2.4c0-.1-.1-.4-.1-.6v-1.5c0-.3.1-.5.1-.7H264v18.7h-3.5V182.6Zm20.5,4.7a6.3,6.3,0,0,0-.3-1.9,4,4,0,0,0-.8-1.6,2.8,2.8,0,0,0-1.3-1.1,4.2,4.2,0,0,0-2-.5,4.4,4.4,0,0,0-3.4,1.4,6.6,6.6,0,0,0-1.4,3.7Zm-9.2,2.7q0,3.1,1.5,4.5a6.5,6.5,0,0,0,4.5,1.4,13.3,13.3,0,0,0,4.9-.9,5,5,0,0,1,.5,1.3,8.8,8.8,0,0,1,.2,1.6,11.1,11.1,0,0,1-2.6.7,16.6,16.6,0,0,1-3.2.3,11.6,11.6,0,0,1-4.4-.7,9.3,9.3,0,0,1-3-2,7.3,7.3,0,0,1-1.7-3.1,11.2,11.2,0,0,1-.6-3.8,12.3,12.3,0,0,1,.6-3.9,7.6,7.6,0,0,1,1.6-3.1,7.1,7.1,0,0,1,2.7-2.1,8,8,0,0,1,3.9-.8,8.6,8.6,0,0,1,3.4.6,9.4,9.4,0,0,1,2.5,1.8,8.2,8.2,0,0,1,1.4,2.8,9.3,9.3,0,0,1,.6,3.4c0,.3-.1.7-.1,1.1a2.8,2.8,0,0,1-.1.9Zm16.7-10.2h3.1a7.8,7.8,0,0,0,.2,1.4,9.2,9.2,0,0,1,.1,1.6,7,7,0,0,1,2-2.2,5.5,5.5,0,0,1,3.2-.9h1.2a2,2,0,0,0,.1.7v1.6c-.1.3-.1.6-.2.9h-1.1l-1.8.2a3.4,3.4,0,0,0-1.6,1,5.2,5.2,0,0,0-1.2,1.9,12.3,12.3,0,0,0-.4,3.1v9.3h-3.6V179.8ZM263,169.9a5,5,0,0,1-.2,1.2,3.1,3.1,0,0,1-1.3.3h0a3.1,3.1,0,0,1-1.3-.3,5,5,0,0,1-.2-1.2h0a5,5,0,0,1,.2-1.2,3.1,3.1,0,0,1,1.3-.3h0a3.1,3.1,0,0,1,1.3.3,5,5,0,0,1,.2,1.2Zm4.4-1.1h-3.5l2.5-2.4a6.7,6.7,0,0,0-1.4-1.5l-2.5,2.5v-3.5h-2v3.5l-2.5-2.5-.8.7h0l-.6.8,2.5,2.4h-3.6v1h0v1h3.6l-2.5,2.4a5,5,0,0,0,1.4,1.5l2.5-2.5v3.5h2v-3.5l2.5,2.5.8-.7h0l.6-.8-2.5-2.4h3.5a3.8,3.8,0,0,0,.1-1h0a3.8,3.8,0,0,0-.1-1ZM203.6,198l9.8-15.3h-8.6a6.8,6.8,0,0,1-.2-1.5,5.9,5.9,0,0,1,.2-1.4h14v.5L209,195.6h9.3a7.6,7.6,0,0,1,.1,1.5,6.6,6.6,0,0,1-.1,1.4H203.8l-.2-.5Zm28.3-8.3h-2.8a6.3,6.3,0,0,0-3.4.8,3,3,0,0,0-1.2,2.6,2.9,2.9,0,0,0,2.7,3h3.1l1.6-.3v-5.9Zm0-3.5a3.5,3.5,0,0,0-1.1-3,4.8,4.8,0,0,0-3.1-.8,9,9,0,0,0-2.4.2l-2.2.5a6.5,6.5,0,0,1-.7-2.9,11.8,11.8,0,0,1,2.7-.6,14.6,14.6,0,0,1,2.9-.2c2.4,0,4.3.5,5.5,1.6s1.9,2.9,1.9,5.3V198l-3.1.6a22.2,22.2,0,0,1-3.7.3,16.6,16.6,0,0,1-3.2-.3,6.6,6.6,0,0,1-2.4-1.1,5.5,5.5,0,0,1-1.6-1.8,7.8,7.8,0,0,1-.5-2.8,6,6,0,0,1,.6-2.7,4.9,4.9,0,0,1,1.8-2,6.4,6.4,0,0,1,2.5-1.1,9.2,9.2,0,0,1,2.9-.4h2l1.2.2v-.7Zm11.1,9.2,1.4.4h1.9a10,10,0,0,0,2.4-.4,4.6,4.6,0,0,0,1.8-1.3,5.4,5.4,0,0,0,1.3-2.2,10.4,10.4,0,0,0,.4-3.2,8.7,8.7,0,0,0-1-4.6,4,4,0,0,0-3.5-1.7,5.2,5.2,0,0,0-1.8.3,6.5,6.5,0,0,0-1.5,1,4,4,0,0,0-1,1.7,5.3,5.3,0,0,0-.4,2.3v7.6Zm-3.6-15.6h3a2,2,0,0,1,.1.5c0,.2.1.5.1.8a2.5,2.5,0,0,1,.1.8,1.8,1.8,0,0,1,.1.5,4.4,4.4,0,0,1,.9-1.1,4,4,0,0,1,1.2-1,5.9,5.9,0,0,1,1.6-.7l2-.2a9.9,9.9,0,0,1,3,.5,6.6,6.6,0,0,1,2.4,1.7,8.1,8.1,0,0,1,1.6,2.9,17.3,17.3,0,0,1,.5,4.2,10.5,10.5,0,0,1-2.6,7.5c-1.7,1.8-4.2,2.7-7.3,2.7h-1.7l-1.4-.3V207l-1,.2h-1.7l-.9-.2V179.8Z" transform="translate(-20 -20.5)"/><path class="d" d="M81.1,271.3a7.9,7.9,0,1,1-7.9-7.8A7.7,7.7,0,0,1,81.1,271.3Zm-3.5,0a4.4,4.4,0,1,0-8.8,0,4.4,4.4,0,1,0,8.8,0Z" transform="translate(-20 -20.5)"/><path class="e" d="M98.1,271.3a7.9,7.9,0,1,1-7.9-7.8A7.7,7.7,0,0,1,98.1,271.3Zm-3.4,0a4.5,4.5,0,1,0-8.9,0,4.5,4.5,0,1,0,8.9,0Z" transform="translate(-20 -20.5)"/><path class="f" d="M114.5,263.9v14.2c0,5.8-3.4,8.2-7.5,8.2a7.6,7.6,0,0,1-7-4.7l3-1.2a4.6,4.6,0,0,0,4,2.8c2.6,0,4.2-1.6,4.2-4.7v-1.1h-.1a5.4,5.4,0,0,1-4.2,1.8,7.9,7.9,0,0,1,0-15.7,5.7,5.7,0,0,1,4.2,1.7h.1v-1.3Zm-3.1,7.5c0-2.8-1.8-4.8-4.2-4.8a4.8,4.8,0,0,0,0,9.5C109.6,276.1,111.4,274.1,111.4,271.4Z" transform="translate(-20 -20.5)"/><path class="g" d="M119.9,255.6v23.1h-3.4V255.6Z" transform="translate(-20 -20.5)"/><path class="d" d="M133,273.9l2.7,1.8a7.6,7.6,0,0,1-6.5,3.5,7.8,7.8,0,0,1-7.9-7.9,7.5,7.5,0,0,1,7.5-7.9,7.2,7.2,0,0,1,6.7,5.1l.4.9-10.6,4.3a4.2,4.2,0,0,0,3.9,2.4,4.5,4.5,0,0,0,3.8-2.2Zm-8.2-2.8,7-2.9a3,3,0,0,0-2.9-1.7A4.2,4.2,0,0,0,124.8,271.1Z" transform="translate(-20 -20.5)"/><path class="f" d="M52.5,269.3v-3.4H63.8A12.5,12.5,0,0,1,64,268a11,11,0,0,1-2.9,7.8,11.4,11.4,0,0,1-8.6,3.4,12.3,12.3,0,1,1,0-24.5,11.6,11.6,0,0,1,8.4,3.4l-2.3,2.4a8.5,8.5,0,0,0-6.1-2.4,8.9,8.9,0,0,0,0,17.8,8.2,8.2,0,0,0,6.2-2.5,6.8,6.8,0,0,0,1.8-4.1Z" transform="translate(-20 -20.5)"/><path class="h" d="M397.6,121.5a2.8,2.8,0,0,1,2,.6,2.4,2.4,0,0,1,.6,1.8v4.4h-1.4v-4.2c0-.9-.5-1.4-1.5-1.4a2.8,2.8,0,0,0-1.3.3,2.8,2.8,0,0,1,.1.9v4.4h-1.4v-4.2c0-.9-.5-1.4-1.5-1.4l-1.4.2v5.4h-1.4v-6.1l1.4-.5,1.7-.2a3.3,3.3,0,0,1,1.9.5A5.4,5.4,0,0,1,397.6,121.5Zm7.4,7a3,3,0,0,1-2.4-.9,4,4,0,0,1-.8-2.6c0-2.4,1-3.5,3.1-3.5a3,3,0,0,1,2.4.9,3.4,3.4,0,0,1,.8,2.6,3.5,3.5,0,0,1-.8,2.6A2.9,2.9,0,0,1,405,128.5Zm-.1-1.2c1.2,0,1.9-.8,1.9-2.3a3,3,0,0,0-.5-1.8c-.3-.4-.7-.5-1.4-.6a1.4,1.4,0,0,0-1.3.6,3,3,0,0,0-.4,1.8,2.9,2.9,0,0,0,.4,1.7,1.5,1.5,0,0,0,1.3.6Zm7.8-5.8a2.9,2.9,0,0,1,2.3.9,3.7,3.7,0,0,1,.7,2.5,3.8,3.8,0,0,1-.9,2.8,3.6,3.6,0,0,1-2.3.8c-1.9,0-2.8-.5-2.8-1.5v-8H411v2.9l.9-.3Zm-.3,5.8a1.8,1.8,0,0,0,1.5-.6,2.9,2.9,0,0,0,.4-1.7,2.5,2.5,0,0,0-.4-1.7,1.7,1.7,0,0,0-1.4-.6h-.7a1.3,1.3,0,0,0-.8.3v3.5c0,.5.5.7,1.4.7Zm4.9-8h1.5v1.3h-1.5Zm0,2.4h1.4v6.6h-1.4Zm3.4,6.6v-9.2H422v9.2Zm6-6.8a2.5,2.5,0,0,1,2.2,1,4.5,4.5,0,0,1,.7,2.8H425a2,2,0,0,0,.6,1.5,2,2,0,0,0,1.4.5,3.9,3.9,0,0,0,2.1-.6V128a4.3,4.3,0,0,1-2.3.5,3.2,3.2,0,0,1-2.4-.9,4.6,4.6,0,0,1,0-5.2A2.9,2.9,0,0,1,426.7,121.5Zm-.1,1.1a1.4,1.4,0,0,0-1.1.4,2.7,2.7,0,0,0-.5,1.3h3.2a2.2,2.2,0,0,0-.5-1.3A1.6,1.6,0,0,0,426.6,122.6ZM413.4,68a20.6,20.6,0,0,0-3.5-.5,11.1,11.1,0,1,0,11.1,11,10.9,10.9,0,0,0-.3-2.6l8.8-2.4a20.3,20.3,0,0,1-2.6,16.1l-14.6,27H398.8l9.6-17.7a.3.3,0,0,0-.3-.3A20.1,20.1,0,1,1,416,59.4Z" transform="translate(-20 -20.5)"/><circle class="i" cx="389.9" cy="58" r="6.1"/><path class="i" d="M420.4,75.1a.8.8,0,0,1-.7-.5,10.2,10.2,0,0,0-5.3-5.5.8.8,0,0,1-.3-1,.6.6,0,0,1,.9-.3,11.9,11.9,0,0,1,6,6.3c.1.4,0,.8-.4.9Zm3.8-1.7a.7.7,0,0,1-.6-.4,14.9,14.9,0,0,0-7.5-7.9.8.8,0,0,1-.4-1,.7.7,0,0,1,.9-.3,16.4,16.4,0,0,1,8.3,8.7.9.9,0,0,1-.4.9Zm3.7-1.2a.7.7,0,0,1-.6-.5,18.9,18.9,0,0,0-10-10.4.7.7,0,1,1,.6-1.2,19.1,19.1,0,0,1,6.4,4.5,19.3,19.3,0,0,1,4.3,6.6c.1.4,0,.8-.4.9Z" transform="translate(-20 -20.5)"/><path class="j" d="M394.9,253.2a14.5,14.5,0,0,1,6.2,1.5,8.9,8.9,0,0,1,4.1,3.8,9.8,9.8,0,0,1,1.3,3.6,15.9,15.9,0,0,1-.9,7.2,19.6,19.6,0,0,1-1.8,3.9,27.3,27.3,0,0,1-5.5,6.7,49.1,49.1,0,0,1-9.1,6.6,20,20,0,0,1-4,1.7,12.4,12.4,0,0,1-2.7.3,3.5,3.5,0,0,1-2.8-1.4,4.5,4.5,0,0,1-.9-2.9,2.8,2.8,0,0,1,.1-.9,13.8,13.8,0,0,1,1.9-4.3,6.7,6.7,0,0,1,2.5-2.5,4.5,4.5,0,0,1,3.7-.8,3.4,3.4,0,0,1,1.2.6,1.5,1.5,0,0,1,.4,2.2l-1.2,1.6-2.4,2.4a14.5,14.5,0,0,0-1.9,2.3,4.5,4.5,0,0,0-.6,1.4.9.9,0,0,0,.9,1.1,1.6,1.6,0,0,0,1-.1,12.6,12.6,0,0,0,2.9-1.2,41,41,0,0,0,4.1-2.6l4.4-3.8a25.4,25.4,0,0,0,4.1-5.2,13.3,13.3,0,0,0,1.6-4.6,6.4,6.4,0,0,0-.5-4.1,3.4,3.4,0,0,0-1.4-1.5l-1-.4a7.8,7.8,0,0,0-3.4.3,21.1,21.1,0,0,0-3.4,1.6c-2.3,1.4-4.6,2.8-6.8,4.3l-3.3,2.4a16.1,16.1,0,0,1-3,2.1,8.5,8.5,0,0,1-2.8,1,3.9,3.9,0,0,1-3.3-.6,4.8,4.8,0,0,1-2.1-5.2,12.3,12.3,0,0,1,1.4-3.1,24.1,24.1,0,0,1,5.7-6.2,38.7,38.7,0,0,1,10.9-6A20.1,20.1,0,0,1,394.9,253.2Z" transform="translate(-20 -20.5)"/><path class="j" d="M367.5,308.2a3.6,3.6,0,0,0-.5-2.1,2.4,2.4,0,0,0-.8-.6,5,5,0,0,0-2.7,0l-2,.8-.4.2a24.4,24.4,0,0,0-1-2.4l1.4-.6a10.2,10.2,0,0,1,3.3-.9,6.6,6.6,0,0,1,3.4.6,4.5,4.5,0,0,1,2.4,2.8,1.3,1.3,0,0,1,.1.6c0,1.7.1,3.4.1,5.1s-.1,2.4-.1,3.6a.8.8,0,0,1-.2.4,6.7,6.7,0,0,1-3,1.9,8.2,8.2,0,0,1-3.8.6,5.2,5.2,0,0,1-3.1-1.4,4.5,4.5,0,0,1-1.6-3,4.4,4.4,0,0,1,1.4-4.2,4.1,4.1,0,0,1,2.7-1.3,21.7,21.7,0,0,1,3.6-.1Zm-.1,2.6h-2.9a1.5,1.5,0,0,0-1.3.5,1.8,1.8,0,0,0-.7,2.1,2.4,2.4,0,0,0,1.7,1.9,2.9,2.9,0,0,0,1.6.1,2.6,2.6,0,0,0,1.3-.6c.2-.1.2-.3.3-.4v-3.7Z" transform="translate(-20 -20.5)"/><path class="j" d="M407.6,310.8c-2.8,0-5.7-.1-8.5,0v.6a7.3,7.3,0,0,0,.6,2.1,3.3,3.3,0,0,0,1.1,1.5,3.1,3.1,0,0,0,2.6.5,7.9,7.9,0,0,0,2.2-.6l1-.4a20,20,0,0,0,1,2.1h-.2a12,12,0,0,1-4.5,1.5,6.7,6.7,0,0,1-4.1-.9,6.9,6.9,0,0,1-2-2.2,8.9,8.9,0,0,1-1.1-3.6,9.9,9.9,0,0,1,1.5-6.3,4.9,4.9,0,0,1,3.5-2.4,6.7,6.7,0,0,1,4.2.7,6.1,6.1,0,0,1,1.6,1.6,7.5,7.5,0,0,1,.9,2.9c.1.8.1,1.7.2,2.5Zm-3.5-2.6a4.4,4.4,0,0,0-.7-2.2,2.1,2.1,0,0,0-1-.6,2.2,2.2,0,0,0-2.6,1.2,7.6,7.6,0,0,1-.4,1.1,1.1,1.1,0,0,1-.1.5,38.4,38.4,0,0,0,4.8,0Z" transform="translate(-20 -20.5)"/><path class="j" d="M388.9,299.2l3.4-.6v4.2h2.2v2.6h-2.2v9a1.2,1.2,0,0,0,1,1.1l1,.2h.3v2.2h-.1a7,7,0,0,1-2.9-.3,3.2,3.2,0,0,1-2.2-1.6,3.3,3.3,0,0,1-.5-1.5V299.2Z" transform="translate(-20 -20.5)"/><path class="j" d="M409.5,299.2l3.3-.6v15.7a1.4,1.4,0,0,0,1,1.4h1.3v2.2H415a8.3,8.3,0,0,1-2.7-.3,2.8,2.8,0,0,1-1.5-.8,3.5,3.5,0,0,1-1.3-2.6V299.2Z" transform="translate(-20 -20.5)"/><path class="j" d="M382.2,317.9h-3.3v-12a1.6,1.6,0,0,1,.5-.9,9.5,9.5,0,0,1,8-2.3h.3a23.6,23.6,0,0,1-1.2,2.8H385a10.2,10.2,0,0,0-2.5.6c-.2.2-.3.3-.3.5v11.3Z" transform="translate(-20 -20.5)"/><path class="j" d="M376.4,303c.1,5,0,9.9.1,14.9h-3.3V303.5Z" transform="translate(-20 -20.5)"/><path class="j" d="M374.7,301.5a2.2,2.2,0,0,1-2-3.1,2,2,0,0,1,2.2-1.2,2.1,2.1,0,0,1,2,2.6A2.1,2.1,0,0,1,374.7,301.5Z" transform="translate(-20 -20.5)"/><polygon class="k" points="221 329 225.9 327.2 221 325.3 221 322.8 229.4 326.2 229.4 328.3 221 331.7 221 329"/><path d="M194.6,365.7c-1.7,0-3.2-.9-3.2-2.9h0c0-2.4,2.1-3.2,4.6-3.2h1.2V359c0-1-.4-1.5-1.4-1.5a1.3,1.3,0,0,0-1.5,1.2h-2.6c.2-2.2,1.9-3.2,4.2-3.2s4.1,1,4.1,3.4v6.6h-2.7v-1.1A3.2,3.2,0,0,1,194.6,365.7Zm2.6-3.4v-1h-1.1c-1.3,0-2,.4-2,1.3h0c0,.7.4,1.1,1.4,1.1A1.5,1.5,0,0,0,197.2,362.3Zm9,3.4c-2.7,0-4.7-1.7-4.7-5v-.2c0-3.3,2.1-5.1,4.7-5.1s4.1,1.2,4.3,3.7h-2.6c-.2-.9-.7-1.5-1.6-1.5s-2,.9-2,2.8v.4c0,1.9.7,2.8,2,2.8a1.8,1.8,0,0,0,1.7-1.7h2.5C210.4,364.1,208.9,365.7,206.2,365.7Zm10.2,0c-2.7,0-4.7-1.7-4.7-5v-.2c0-3.3,2.1-5.1,4.7-5.1s4.1,1.2,4.3,3.7h-2.6c-.2-.9-.7-1.5-1.6-1.5s-2,.9-2,2.8v.4c0,1.9.7,2.8,2,2.8a1.9,1.9,0,0,0,1.8-1.7h2.5A4,4,0,0,1,216.4,365.7Zm10.3,0c-2.8,0-4.7-1.7-4.7-4.9v-.3c0-3.2,2-5.1,4.6-5.1s4.5,1.4,4.5,4.7v1.2h-6.4c.1,1.8.9,2.4,2.1,2.4a1.7,1.7,0,0,0,1.8-1.2h2.5C230.8,364.3,229.3,365.7,226.7,365.7Zm-1.9-6.2h3.6c0-1.5-.7-2.1-1.8-2.1S225,357.9,224.8,359.5Zm8-3.8h2.8v1.5a2.9,2.9,0,0,1,2.9-1.7c1.8,0,3,1.1,3,3.4v6.6h-2.8v-6.2c0-1.1-.4-1.6-1.4-1.6a1.6,1.6,0,0,0-1.7,1.8v6h-2.8v-9.8Zm13.8-3v3h1.8v2h-1.8v4.7c0,.7.3,1.1,1,1.1l.9-.2v2.1a3.2,3.2,0,0,1-1.6.3c-2.1,0-3.1-1-3.1-3v-5h-1.1v-2h1.1v-1.8Zm12.2,12.8h-2.7V364a3.1,3.1,0,0,1-2.9,1.7c-1.8,0-3.1-1.1-3.1-3.4v-6.6h2.8V362c0,1.1.4,1.6,1.4,1.6a1.7,1.7,0,0,0,1.7-1.8v-6.1h2.8Zm2-9.8h2.8v1.8a2.8,2.8,0,0,1,2.9-1.9v2.7c-1.8,0-2.9.6-2.9,2.2v5.1h-2.8Zm11.3,10c-2.8,0-4.7-1.7-4.7-4.9v-.3c0-3.2,2-5.1,4.7-5.1s4.4,1.4,4.4,4.7v1.2h-6.3c.1,1.8.9,2.4,2,2.4a1.6,1.6,0,0,0,1.8-1.2h2.6C276.2,364.3,274.7,365.7,272.1,365.7Zm-2-6.2h3.7c0-1.5-.7-2.1-1.8-2.1S270.4,357.9,270.1,359.5Z" transform="translate(-20 -20.5)"/><path class="l" d="M376.1,452.1c-3.6,0-6,2.8-6,6.6s2.2,6,5.7,6a6,6,0,0,0,4.7-2.2l-.4-.4a4.7,4.7,0,0,1-3.8,1.7c-2.8,0-4.5-2.4-4.5-5.9s1.7-5.2,4.3-5.2,3.3,1,3.9,3.1h.3v-3.6h-.3a.7.7,0,0,1-.7.4A17.5,17.5,0,0,0,376.1,452.1Zm-39.7-13.8v.4c.6.1,1.5.3,1.4,1.6l-.3,7.4c-.1,1.5-.6,2.1-1.6,2.2v.4h3.8v-.4c-1.2-.2-1.5-.6-1.4-2.1l.3-7.4,3.9,9.8h.4l3.8-9.8.4,7.9c0,1.2-.3,1.5-1.2,1.6v.4h4.3v-.4c-1-.1-1.5-.6-1.5-2l-.4-7.5c0-1.1.4-1.6,1.4-1.6v-.4h-3l-3.6,9.2-3.6-9.3Zm21.4,0v.4c1.3.1,1.4.3,1.4,3.4v4.2c0,3.3-.2,3.5-1.4,3.6v.4h4.3v-.4c-1.4-.1-1.4-.2-1.4-3.8v-.7l.6-.6,4.6,5.5h6.8v-.4c-1.2,0-1.2,0-1.2-2.7v-4.4h-2.8v.4c1.2,0,1.4.1,1.4,2.2v1.8c0,2.7-.1,2.7-1.3,2.7s-1.4-.2-3.5-2.7a35.1,35.1,0,0,1-2.9-3.6l2.5-2.8c1.3-1.4,2-2.1,3.1-2.1v-.4h-4v.4c.5.1.7.3.7.6s0,.7-.8,1.6l-3.2,3.5v-2.3c0-3.1.2-3.3,1.4-3.4v-.4Zm12.9.5a.9.9,0,0,0-.9,1,.9.9,0,0,0,.9.9.9.9,0,0,0,1-.9A.9.9,0,0,0,370.7,438.8ZM361.5,453a2.1,2.1,0,0,0-2.3,2.2,3.1,3.1,0,0,0,.5,1.8,3.3,3.3,0,0,0-2.4,3.3,4.2,4.2,0,0,0,4.5,4.3,5,5,0,0,0,3.7-1.4l1.8,1.2h2.5V464a8.6,8.6,0,0,1-3.4-1.8,6.4,6.4,0,0,0,.7-2.8c.1-.7.7-.7,1-.7v-.3h-3.4v.3c.8.1,1.6.2,1.6,1.4a3.4,3.4,0,0,1-.4,1.8c-3-2.4-5.7-5.6-5.7-7.2s.5-1.2,1.3-1.2a2.7,2.7,0,0,1,2.3,1.9h.3v-2.2h-.4a.2.2,0,0,1-.2.2A11.3,11.3,0,0,0,361.5,453Zm24.3-10.3a2.1,2.1,0,0,0-2.4,2.1c0,2.5,4.3,2,4.3,4s-.7,1.1-1.8,1.1a2.1,2.1,0,0,1-2.2-1.9h-.5a7.4,7.4,0,0,0,.2,1.8,3.9,3.9,0,0,0,2.5.7c1.8,0,2.9-1,2.9-2.3s-4.3-2.3-4.3-4.1.6-.9,1.2-.9a2.4,2.4,0,0,1,2.2,1.7h.3a4,4,0,0,0-.2-1.8A5.4,5.4,0,0,0,385.8,442.7Zm7.9,0c-2.2,0-3.7,1.7-3.7,4.1a3.4,3.4,0,0,0,3.6,3.7,4.5,4.5,0,0,0,3.1-1.2l-.2-.4a3.8,3.8,0,0,1-2.2.7c-2.1,0-2.9-1.9-2.9-3.6h5.3C396.7,444.3,395.8,442.7,393.7,442.7Zm-8.3,14a3.9,3.9,0,0,0-4.1,3.9A3.8,3.8,0,0,0,383,464a4.1,4.1,0,0,0,2.3.5,3.8,3.8,0,0,0,4-3.9,3.9,3.9,0,0,0-1.6-3.3A4.6,4.6,0,0,0,385.4,456.7Zm-30.8-14a4.1,4.1,0,0,0-3.9,4.3,3.3,3.3,0,0,0,3.5,3.5,4.3,4.3,0,0,0,3.1-1.2l-.2-.4a3.6,3.6,0,0,1-2.2.7c-2,0-2.8-1.8-2.8-3.6a2.5,2.5,0,0,1,.6-1.9,1.9,1.9,0,0,1,1.3-.5,2.6,2.6,0,0,1,2.2,1.1h.1a2.1,2.1,0,0,0,.5-1.3A3.6,3.6,0,0,0,354.6,442.7Zm24.2,0a3.6,3.6,0,0,0-2.7,1.5v-1.4h-2.8v.4c1.2,0,1.3.1,1.3,2.2v1.8c0,2.7,0,2.7-1.3,2.7v.4h4v-.4c-1.2,0-1.2,0-1.2-2.7v-2c0-.7.9-1.5,2.1-1.5s1.6.4,1.6,2.2v1.5c0,2.5-.1,2.5-1.1,2.5v.4h3.9v-.4c-1.3,0-1.3,0-1.3-2.5v-1.7C381.3,443.4,380,442.7,378.8,442.7Zm16.6,14.1a3.4,3.4,0,0,0-2.6,1.4v-1.3H390v.3c1.2.1,1.4.2,1.4,2.2v2.2c0,2.4-.1,2.4-1.3,2.4v.4H394V464c-1.1-.1-1.2-.1-1.2-2.5v-2.2a2.1,2.1,0,0,1,2-1.6c1.2,0,1.7.7,1.7,2.1v1.6c0,2.4-.1,2.5-1.1,2.6v.4h3.7V464c-1.3-.1-1.2-.2-1.2-2.6v-2.1a2,2,0,0,1,2-1.6c1,0,1.6.6,1.6,2.1v1.8c0,2.2,0,2.3-1.1,2.4v.4h3.9V464c-1.4-.1-1.3-.2-1.3-2.4v-2c0-2-1.1-2.8-2.4-2.8a3.7,3.7,0,0,0-2.9,1.6A2.1,2.1,0,0,0,395.4,456.8Zm14.3,0a3.3,3.3,0,0,0-2.5,1.2v-1.1h-2.8v.3c1.2.1,1.3.2,1.3,2.6v5.1c0,2.7.1,2.9-1.2,2.9v.4h4v-.4c-1.4,0-1.3-.2-1.3-3v-1a3.2,3.2,0,0,0,2.2.7,3.6,3.6,0,0,0,3.7-3.9C413.1,458.4,411.7,456.8,409.7,456.8Zm7.3,0a4.7,4.7,0,0,0-2.6.8,2.5,2.5,0,0,0,.5,1.3h.2c.4-.9.9-1.4,1.8-1.4s1.4.6,1.4,1.5v.8c0,.6-2.5.7-3.5,1.6a1.7,1.7,0,0,0-.6,1.2,1.8,1.8,0,0,0,2.1,1.9,2.6,2.6,0,0,0,2.1-1c.1.6.5.9,1.3.9h5.6V464c-1.2-.1-1.2-.1-1.2-2.7v-2a2,2,0,0,1,2.1-1.6c.9,0,1.6.4,1.6,2.2v1.5c0,2.5-.1,2.5-1.1,2.6v.4h3.9V464c-1.3-.1-1.3-.1-1.3-2.6v-1.6c0-2.3-1.3-3-2.5-3a3.5,3.5,0,0,0-2.7,1.4v-1.3h-2.8v.3c1.2.1,1.3.2,1.3,2.2v1.9c0,2.6,0,2.6-1.3,2.7H421c-1.1,0-1.2-.4-1.2-1.8v-2.5a4.9,4.9,0,0,0-.1-1.3C419.3,457.2,418.4,456.8,417,456.8Zm-20-13.9v.4c.9,0,.9.2,2.1,2.7l2,4.3a4.8,4.8,0,0,1-3.9,3.2,4.1,4.1,0,0,0,.7,1.1c2.8-1.1,3.4-2.9,4.3-5.7l1.5-4.2c.4-1,.9-1.4,1.4-1.4v-.4h-2.7v.4c.7,0,1,.4.8,1.1l-1.5,4.3-1.4-3.3a4.2,4.2,0,0,1-.5-1.6c0-.3.2-.4.7-.5v-.4ZM430.1,457v.3c.8.1.9.2,2.1,2.8l1.9,4.3a4.7,4.7,0,0,1-3.8,3.1,3.5,3.5,0,0,0,.7,1.2c2.7-1.1,3.3-3,4.3-5.8l1.5-4.2c.3-1,.8-1.4,1.3-1.4V457h-2.6v.3c.6.1,1,.4.7,1.2l-1.4,4.2-1.4-3.3a5.3,5.3,0,0,1-.6-1.5c0-.3.2-.5.7-.6V457Zm-36.7-13.7a1.8,1.8,0,0,1,1.9,2.1h-3.8C391.6,444.1,392.2,443.3,393.4,443.3Zm-8.3,14c1.4,0,2.7,1.3,2.7,3.8s-.8,2.8-2.3,2.8-2.7-1.2-2.7-3.8S383.7,457.3,385.1,457.3Zm-25.2.2a18.5,18.5,0,0,0,5.1,5.4,4.4,4.4,0,0,1-2.6.6,3.7,3.7,0,0,1-3.9-3.6A2.4,2.4,0,0,1,359.9,457.5Zm49.2.2c1.5,0,2.5,1.2,2.5,3.1s-.8,3.2-2.4,3.2-2-.6-2-1.3V459C407.2,458.4,408.1,457.7,409.1,457.7Zm9.2,2.8v2.1c0,.6-.8,1.1-1.5,1.1a1.1,1.1,0,0,1-1.1-1.2C415.7,460.9,417.3,461.1,418.3,460.5Z" transform="translate(-20 -20.5)"/><path class="m" d="M133.8,447.6c8.5-7,25.8-32-1.3-27.5-11.9,1.7-29.2,13.2-32.7,26.5a106.2,106.2,0,0,0-6-10.3c-3.3-4.5-7-.9-3.4,3.6a76.9,76.9,0,0,1,17.4,45.6c.9-8-.5-17.8-3.7-27.4a17.1,17.1,0,0,0,4.9.7c5.5,9.1,14,16.9,23.5,20.5s20.3,1.4,15.5-12.6C145.5,459,139.6,452.3,133.8,447.6Zm1.2-24.3c15-1.7-1.1,17.1-6.4,20.6-4.9-3.3-11.1-6.1-17.1-5.3C115.8,433,126.4,424.4,135,423.3Zm-23.6,19.4c4.1-.4,8.5,1.9,12,4.3a33.5,33.5,0,0,1-10.7,3C107.2,450,106,443.1,111.4,442.7Zm20.8,29.1c-7-2-13.7-7.7-18.5-13.5a38.8,38.8,0,0,0,11.5-4.5,30.3,30.3,0,0,0,3.8-2.4c4.2,3.8,8.6,9,10.3,14.8S136.4,473,132.2,471.8Z" transform="translate(-20 -20.5)"/></svg>