<?xml version="1.0" encoding="utf-8"?>
<!-- Generator: Adobe Illustrator 25.0.0, SVG Export Plug-In . SVG Version: 6.00 Build 0)  -->
<svg version="1.1" id="Layer_1" xmlns="http://www.w3.org/2000/svg" xmlns:xlink="http://www.w3.org/1999/xlink" x="0px" y="0px"
	 viewBox="0 0 517 553" style="enable-background:new 0 0 517 553;" xml:space="preserve">
<style type="text/css">
	.st0{fill:#F5A623;}
</style>
<path class="st0" d="M381.9,235c71-58,216-267-11-230c-99,15-244,111-273,222c-15-30-32-58-50-86c-28-38-59-8-29,30
	c88.9,107.7,140.2,241.5,146,381c7-67-4-149-31-229c13,4,28,6,41,6c46,76,117,141,196,171c73,29,170,12,130-105
	C479.9,331,430.9,275,381.9,235z M391.9,32c126-14-9,143-53,172c-41-27-93-51-143-44C231.9,113,319.9,41,391.9,32z M194.9,194
	c34-3,71,16,100,36c-28,14-58,22-89,25C159.9,255,149.9,198,194.9,194z M368.9,438c-59-17-115-65-155-113c33-7,66-20,96-38
	c11-5,22-13,32-20c35,32,72,75,86,124C441.9,444,403.9,448,368.9,438z"/>
</svg>
